<svg xmlns="http://www.w3.org/2000/svg" xmlns:xlink="http://www.w3.org/1999/xlink" width="600" zoomAndPan="magnify" viewBox="0 0 450 149.999998" height="200" preserveAspectRatio="xMidYMid meet" version="1.0"><defs><clipPath id="55aa763cec"><path d="M 18 53 L 210 53 L 210 98 L 18 98 Z M 18 53 " clip-rule="nonzero"/></clipPath><clipPath id="f493347084"><path d="M 17.515625 94.496094 L 18.367188 51.003906 L 211.078125 54.769531 L 210.230469 98.261719 Z M 17.515625 94.496094 " clip-rule="nonzero"/></clipPath><clipPath id="4fc8cf5bea"><path d="M 17.515625 94.496094 L 18.367188 51.003906 L 211.078125 54.769531 L 210.230469 98.261719 Z M 17.515625 94.496094 " clip-rule="nonzero"/></clipPath><clipPath id="f46e683450"><path d="M 240 54 L 432 54 L 432 98 L 240 98 Z M 240 54 " clip-rule="nonzero"/></clipPath><clipPath id="2ba4e0a84c"><path d="M 431.488281 51.132812 L 432.476562 94.621094 L 239.777344 99 L 238.789062 55.511719 Z M 431.488281 51.132812 " clip-rule="nonzero"/></clipPath><clipPath id="296c46352e"><path d="M 431.488281 51.132812 L 432.476562 94.621094 L 239.777344 99 L 238.789062 55.511719 Z M 431.488281 51.132812 " clip-rule="nonzero"/></clipPath></defs><g clip-path="url(#55aa763cec)"><g clip-path="url(#f493347084)"><g clip-path="url(#4fc8cf5bea)"><path fill="#8b1a1a" d="M 20.914062 71.027344 C 25.699219 69.824219 30.703125 69.5 35.605469 70.054688 C 38.515625 70.417969 40.894531 71.824219 41.917969 73.570312 C 97.519531 72.859375 153.125 73.820312 208.726562 74.960938 C 209.957031 74.984375 210.070312 78.066406 208.59375 78.035156 C 153.046875 75.578125 97.429688 74.089844 41.824219 73.925781 C 40.785156 75.289062 38.300781 76.027344 36.328125 76.339844 C 31.132812 76.828125 25.847656 76.332031 20.839844 74.863281 C 24.90625 75.335938 29.066406 75.679688 33.203125 75.847656 C 30.953125 75.273438 28.695312 74.324219 26.816406 73.589844 C 26.792969 73.585938 20.929688 72.796875 18.160156 72.992188 C 21.226562 72.667969 25.644531 72.726562 26.820312 72.515625 C 28.722656 71.875 30.898438 71.058594 33.011719 70.53125 C 28.964844 70.546875 24.898438 70.726562 20.914062 71.027344 Z M 51.621094 63.667969 C 47.492188 61.199219 42.929688 59.464844 38.199219 58.601562 C 41.851562 59.9375 45.53125 61.421875 49.125 63.039062 C 47.039062 62.652344 44.78125 62.5 42.835938 62.300781 C 41.703125 62.011719 37.8125 60.179688 34.964844 59.226562 C 37.496094 60.167969 42.378906 63.238281 42.402344 63.25 C 43.769531 64.652344 45.394531 66.410156 47.15625 67.828125 C 43.550781 66.007812 40 64.023438 36.585938 61.964844 C 40.433594 65.289062 44.921875 67.863281 49.726562 69.527344 C 51.707031 70.074219 54.390625 70.429688 55.816406 69.460938 C 55.671875 67.464844 54.109375 65.195312 51.621094 63.667969 Z M 77.148438 62.996094 C 72.808594 60.398438 68.003906 58.578125 63.027344 57.667969 C 66.871094 59.074219 70.738281 60.636719 74.523438 62.335938 C 72.328125 61.933594 69.953125 61.769531 67.90625 61.5625 C 66.71875 61.257812 62.621094 59.328125 59.625 58.328125 C 62.289062 59.320312 67.421875 62.542969 67.449219 62.5625 C 68.890625 64.042969 70.597656 65.890625 72.453125 67.378906 C 68.664062 65.464844 64.925781 63.375 61.328125 61.210938 C 65.378906 64.703125 70.101562 67.414062 75.152344 69.164062 C 77.238281 69.746094 80.054688 70.113281 81.5625 69.097656 C 81.414062 67 79.769531 64.609375 77.148438 62.996094 Z M 102.683594 62.332031 C 98.128906 59.605469 93.085938 57.695312 87.863281 56.738281 C 91.898438 58.214844 95.960938 59.851562 99.929688 61.640625 C 97.628906 61.214844 95.132812 61.042969 92.980469 60.824219 C 91.734375 60.503906 87.433594 58.484375 84.285156 57.433594 C 87.082031 58.472656 92.476562 61.859375 92.5 61.875 C 94.015625 63.429688 95.804688 65.363281 97.753906 66.929688 C 93.773438 64.917969 89.855469 62.730469 86.078125 60.457031 C 90.328125 64.125 95.285156 66.964844 100.589844 68.800781 C 102.777344 69.410156 105.738281 69.800781 107.316406 68.734375 C 107.15625 66.53125 105.429688 64.019531 102.683594 62.332031 Z M 128.214844 61.664062 C 123.441406 58.8125 118.160156 56.808594 112.6875 55.804688 C 116.914062 57.351562 121.171875 59.066406 125.324219 60.9375 C 122.914062 60.492188 120.304688 60.316406 118.050781 60.082031 C 116.746094 59.75 112.242188 57.632812 108.945312 56.53125 C 111.875 57.625 117.519531 61.167969 117.546875 61.1875 C 119.132812 62.8125 121.007812 64.84375 123.050781 66.476562 C 118.882812 64.371094 114.773438 62.082031 110.824219 59.703125 C 115.277344 63.542969 120.46875 66.515625 126.019531 68.441406 C 128.3125 69.078125 131.414062 69.488281 133.0625 68.367188 C 132.898438 66.0625 131.09375 63.433594 128.214844 61.664062 Z M 153.746094 61 C 148.761719 58.015625 143.242188 55.921875 137.523438 54.875 C 141.941406 56.492188 146.386719 58.28125 150.730469 60.238281 C 148.214844 59.777344 145.484375 59.589844 143.132812 59.351562 C 141.765625 59 137.0625 56.789062 133.617188 55.636719 C 136.679688 56.777344 142.578125 60.480469 142.601562 60.5 C 144.261719 62.199219 146.21875 64.316406 148.355469 66.03125 C 143.996094 63.832031 139.707031 61.433594 135.578125 58.949219 C 140.226562 62.964844 145.648438 66.074219 151.457031 68.082031 C 153.851562 68.75 157.089844 69.179688 158.820312 68.007812 C 158.644531 65.59375 156.753906 62.847656 153.746094 61 Z M 176.132812 59.539062 C 173.503906 59.054688 170.65625 58.859375 168.203125 58.609375 C 166.777344 58.246094 161.867188 55.9375 158.277344 54.738281 C 161.472656 55.925781 167.625 59.792969 167.652344 59.808594 C 169.378906 61.582031 171.425781 63.796875 173.644531 65.582031 C 169.105469 63.285156 164.625 60.785156 160.320312 58.195312 C 165.171875 62.382812 170.828125 65.625 176.882812 67.722656 C 179.378906 68.417969 182.761719 68.863281 184.5625 67.644531 C 184.382812 65.128906 182.410156 62.261719 179.277344 60.332031 C 174.074219 57.222656 168.316406 55.035156 162.351562 53.945312 C 166.960938 55.628906 171.601562 57.5 176.132812 59.539062 Z M 34.773438 84.347656 C 38.265625 82.425781 41.890625 80.582031 45.5625 78.90625 C 43.746094 80.25 42.054688 81.941406 40.628906 83.292969 C 40.609375 83.304688 35.609375 86.179688 33.042969 87.019531 C 35.925781 86.183594 39.890625 84.5 41.027344 84.257812 C 42.980469 84.136719 45.242188 84.070312 47.34375 83.769531 C 43.6875 85.246094 39.953125 86.582031 36.25 87.773438 C 41.011719 87.09375 45.640625 85.542969 49.859375 83.238281 C 52.40625 81.808594 54.054688 79.59375 54.273438 77.609375 C 52.882812 76.582031 50.195312 76.832031 48.191406 77.304688 C 43.332031 78.785156 38.746094 81.179688 34.773438 84.347656 Z M 59.46875 86.070312 C 63.144531 84.046875 66.960938 82.109375 70.824219 80.34375 C 68.914062 81.757812 67.136719 83.539062 65.636719 84.960938 C 65.613281 84.972656 60.355469 87.996094 57.652344 88.882812 C 60.6875 88.003906 64.855469 86.238281 66.054688 85.976562 C 68.109375 85.851562 70.488281 85.777344 72.695312 85.460938 C 68.851562 87.015625 64.921875 88.421875 61.027344 89.679688 C 66.035156 88.960938 70.910156 87.328125 75.347656 84.90625 C 78.027344 83.398438 79.765625 81.074219 79.992188 78.980469 C 78.53125 77.90625 75.699219 78.167969 73.59375 78.664062 C 68.476562 80.214844 63.65625 82.738281 59.46875 86.070312 Z M 84.171875 87.792969 C 88.027344 85.667969 92.035156 83.636719 96.089844 81.78125 C 94.082031 83.265625 92.214844 85.132812 90.640625 86.625 C 90.617188 86.640625 85.101562 89.8125 82.261719 90.742188 C 85.449219 89.816406 89.824219 87.964844 91.082031 87.695312 C 93.242188 87.558594 95.738281 87.488281 98.054688 87.152344 C 94.023438 88.78125 89.894531 90.257812 85.808594 91.578125 C 91.0625 90.824219 96.179688 89.113281 100.835938 86.566406 C 103.648438 84.988281 105.46875 82.546875 105.710938 80.351562 C 104.175781 79.222656 101.203125 79.496094 98.992188 80.019531 C 93.625 81.648438 88.5625 84.292969 84.171875 87.792969 Z M 108.871094 89.511719 C 112.910156 87.289062 117.101562 85.160156 121.347656 83.21875 C 119.246094 84.777344 117.292969 86.730469 115.644531 88.292969 C 115.617188 88.308594 109.839844 91.628906 106.867188 92.605469 C 110.203125 91.636719 114.785156 89.695312 116.105469 89.414062 C 118.363281 89.273438 120.976562 89.199219 123.40625 88.84375 C 119.179688 90.554688 114.863281 92.101562 110.578125 93.480469 C 116.085938 92.691406 121.4375 90.898438 126.320312 88.230469 C 129.261719 86.574219 131.171875 84.019531 131.425781 81.71875 C 129.820312 80.535156 126.707031 80.828125 124.394531 81.371094 C 118.769531 83.078125 113.46875 85.851562 108.871094 89.511719 Z M 133.566406 91.234375 C 137.792969 88.910156 142.171875 86.683594 146.613281 84.65625 C 144.414062 86.285156 142.375 88.328125 140.648438 89.964844 C 140.625 89.980469 134.582031 93.449219 131.480469 94.46875 C 134.96875 93.453125 139.753906 91.425781 141.132812 91.128906 C 143.496094 90.984375 146.226562 90.902344 148.761719 90.539062 C 144.347656 92.324219 139.832031 93.941406 135.355469 95.382812 C 141.105469 94.558594 146.707031 92.6875 151.804688 89.898438 C 154.878906 88.167969 156.878906 85.496094 157.140625 83.09375 C 155.460938 81.855469 152.207031 82.160156 149.789062 82.730469 C 143.917969 84.511719 138.371094 87.40625 133.566406 91.234375 Z M 158.269531 92.957031 C 162.675781 90.53125 167.246094 88.210938 171.875 86.097656 C 169.585938 87.792969 167.453125 89.921875 165.660156 91.628906 C 165.628906 91.644531 159.332031 95.265625 156.09375 96.332031 C 159.730469 95.273438 164.726562 93.15625 166.164062 92.847656 C 168.625 92.695312 171.476562 92.613281 174.121094 92.230469 C 169.511719 94.09375 164.804688 95.777344 160.136719 97.28125 C 166.136719 96.421875 171.976562 94.46875 177.296875 91.5625 C 180.503906 89.757812 182.585938 86.972656 182.863281 84.464844 C 181.109375 83.171875 177.71875 83.488281 175.195312 84.085938 C 169.0625 85.941406 163.277344 88.960938 158.269531 92.957031 Z M 158.269531 92.957031 " fill-opacity="1" fill-rule="nonzero"/></g></g></g><g clip-path="url(#f46e683450)"><g clip-path="url(#2ba4e0a84c)"><g clip-path="url(#296c46352e)"><path fill="#8b1a1a" d="M 429.085938 74.722656 C 424.351562 76.125 419.367188 76.660156 414.445312 76.3125 C 411.527344 76.074219 409.085938 74.769531 407.992188 73.066406 C 352.472656 76.128906 296.875 77.519531 241.273438 78.730469 C 240.042969 78.757812 239.800781 75.683594 241.277344 75.648438 C 296.875 75.761719 352.507812 74.894531 408.070312 72.707031 C 409.054688 71.304688 411.503906 70.460938 413.460938 70.0625 C 418.628906 69.355469 423.933594 69.628906 428.996094 70.882812 C 424.914062 70.585938 420.742188 70.417969 416.601562 70.425781 C 418.875 70.902344 421.171875 71.757812 423.078125 72.410156 C 423.105469 72.410156 428.996094 72.953125 431.753906 72.640625 C 428.703125 73.09375 424.289062 73.222656 423.121094 73.484375 C 421.246094 74.203125 419.109375 75.113281 417.019531 75.726562 C 421.0625 75.542969 425.117188 75.191406 429.085938 74.722656 Z M 398.71875 83.371094 C 402.945312 85.664062 407.578125 87.203125 412.339844 87.867188 C 408.636719 86.683594 404.894531 85.359375 401.234375 83.894531 C 403.335938 84.191406 405.597656 84.25 407.550781 84.367188 C 408.695312 84.605469 412.660156 86.273438 415.546875 87.101562 C 412.976562 86.269531 407.96875 83.410156 407.945312 83.398438 C 406.519531 82.054688 404.824219 80.367188 403.003906 79.027344 C 406.679688 80.691406 410.3125 82.523438 413.808594 84.4375 C 409.824219 81.28125 405.230469 78.898438 400.363281 77.4375 C 398.359375 76.972656 395.664062 76.730469 394.28125 77.761719 C 394.507812 79.746094 396.167969 81.949219 398.71875 83.371094 Z M 373.238281 85.121094 C 377.683594 87.535156 382.5625 89.148438 387.574219 89.847656 C 383.675781 88.605469 379.742188 87.210938 375.894531 85.667969 C 378.101562 85.980469 380.480469 86.042969 382.535156 86.164062 C 383.734375 86.414062 387.910156 88.171875 390.945312 89.042969 C 388.242188 88.164062 382.976562 85.160156 382.949219 85.144531 C 381.445312 83.726562 379.664062 81.953125 377.746094 80.546875 C 381.613281 82.296875 385.4375 84.226562 389.121094 86.234375 C 384.929688 82.917969 380.09375 80.410156 374.972656 78.875 C 372.867188 78.382812 370.035156 78.132812 368.574219 79.210938 C 368.808594 81.300781 370.554688 83.621094 373.238281 85.121094 Z M 347.757812 86.867188 C 352.421875 89.398438 357.542969 91.089844 362.800781 91.828125 C 358.707031 90.519531 354.578125 89.058594 350.539062 87.441406 C 352.855469 87.769531 355.355469 87.832031 357.511719 87.960938 C 358.773438 88.226562 363.152344 90.066406 366.34375 90.980469 C 363.503906 90.0625 357.976562 86.902344 357.949219 86.890625 C 356.371094 85.402344 354.5 83.542969 352.488281 82.0625 C 356.550781 83.90625 360.558594 85.925781 364.425781 88.035156 C 360.023438 84.550781 354.949219 81.921875 349.574219 80.3125 C 347.363281 79.796875 344.386719 79.527344 342.855469 80.664062 C 343.109375 82.859375 344.941406 85.292969 347.757812 86.867188 Z M 322.277344 88.609375 C 327.167969 91.257812 332.527344 93.039062 338.035156 93.808594 C 333.75 92.441406 329.425781 90.910156 325.195312 89.214844 C 327.621094 89.554688 330.238281 89.625 332.496094 89.761719 C 333.816406 90.035156 338.40625 91.964844 341.746094 92.921875 C 338.769531 91.957031 332.984375 88.652344 332.953125 88.636719 C 331.300781 87.082031 329.34375 85.128906 327.234375 83.582031 C 331.484375 85.511719 335.6875 87.625 339.730469 89.835938 C 335.121094 86.1875 329.808594 83.433594 324.183594 81.746094 C 321.863281 81.207031 318.75 80.929688 317.148438 82.117188 C 317.410156 84.414062 319.324219 86.964844 322.277344 88.609375 Z M 296.796875 90.355469 C 301.902344 93.125 307.507812 94.980469 313.261719 95.785156 C 308.78125 94.359375 304.261719 92.757812 299.839844 90.984375 C 302.375 91.339844 305.113281 91.414062 307.46875 91.550781 C 308.851562 91.84375 313.644531 93.855469 317.132812 94.859375 C 314.027344 93.851562 307.976562 90.398438 307.949219 90.382812 C 306.21875 88.753906 304.175781 86.71875 301.96875 85.097656 C 306.414062 87.109375 310.804688 89.324219 315.035156 91.632812 C 310.21875 87.816406 304.667969 84.941406 298.78125 83.179688 C 296.363281 82.617188 293.109375 82.320312 291.433594 83.566406 C 291.707031 85.96875 293.714844 88.632812 296.796875 90.355469 Z M 274.492188 92.757812 C 277.136719 93.132812 279.988281 93.207031 282.453125 93.351562 C 283.890625 93.652344 288.894531 95.753906 292.535156 96.800781 C 289.292969 95.75 282.980469 92.144531 282.953125 92.128906 C 281.152344 90.433594 279.015625 88.304688 276.71875 86.617188 C 281.355469 88.71875 285.933594 91.027344 290.347656 93.433594 C 285.320312 89.453125 279.535156 86.453125 273.394531 84.613281 C 270.871094 84.027344 267.476562 83.722656 265.726562 85.019531 C 266.011719 87.523438 268.101562 90.304688 271.316406 92.097656 C 276.644531 94.988281 282.492188 96.925781 288.496094 97.765625 C 283.820312 96.277344 279.105469 94.605469 274.492188 92.757812 Z M 414.675781 61.996094 C 411.269531 64.066406 407.722656 66.058594 404.128906 67.890625 C 405.886719 66.46875 407.5 64.710938 408.867188 63.296875 C 408.886719 63.285156 413.761719 60.203125 416.292969 59.253906 C 413.445312 60.214844 409.554688 62.058594 408.429688 62.351562 C 406.484375 62.554688 404.226562 62.71875 402.140625 63.109375 C 405.730469 61.476562 409.40625 59.984375 413.054688 58.636719 C 408.328125 59.515625 403.769531 61.265625 399.648438 63.746094 C 397.164062 65.28125 395.609375 67.5625 395.476562 69.554688 C 396.910156 70.523438 399.585938 70.15625 401.566406 69.601562 C 406.359375 67.917969 410.839844 65.332031 414.675781 61.996094 Z M 389.929688 61.320312 C 386.34375 63.496094 382.613281 65.597656 378.824219 67.523438 C 380.675781 66.027344 382.375 64.175781 383.8125 62.691406 C 383.839844 62.679688 388.960938 59.433594 391.625 58.433594 C 388.628906 59.441406 384.539062 61.382812 383.355469 61.691406 C 381.304688 61.90625 378.929688 62.078125 376.738281 62.488281 C 380.515625 60.773438 384.378906 59.203125 388.21875 57.78125 C 383.246094 58.707031 378.445312 60.546875 374.113281 63.15625 C 371.5 64.773438 369.863281 67.171875 369.722656 69.269531 C 371.230469 70.285156 374.046875 69.902344 376.128906 69.316406 C 381.175781 67.550781 385.886719 64.828125 389.929688 61.320312 Z M 365.175781 60.644531 C 361.414062 62.929688 357.496094 65.128906 353.523438 67.152344 C 355.464844 65.582031 357.25 63.640625 358.761719 62.082031 C 358.785156 62.066406 364.160156 58.664062 366.960938 57.613281 C 363.8125 58.675781 359.523438 60.710938 358.273438 61.035156 C 356.125 61.257812 353.628906 61.4375 351.332031 61.871094 C 355.292969 60.070312 359.351562 58.421875 363.382812 56.933594 C 358.164062 57.90625 353.125 59.832031 348.578125 62.570312 C 345.835938 64.269531 344.117188 66.785156 343.96875 68.988281 C 345.550781 70.054688 348.511719 69.652344 350.695312 69.035156 C 355.988281 67.183594 360.9375 64.328125 365.175781 60.644531 Z M 340.425781 59.96875 C 336.484375 62.359375 332.386719 64.664062 328.226562 66.785156 C 330.261719 65.140625 332.128906 63.105469 333.710938 61.472656 C 333.734375 61.457031 339.371094 57.894531 342.296875 56.792969 C 339.007812 57.902344 334.507812 60.039062 333.203125 60.375 C 330.953125 60.609375 328.34375 60.796875 325.933594 61.25 C 330.082031 59.367188 334.332031 57.636719 338.550781 56.078125 C 333.082031 57.097656 327.808594 59.113281 323.046875 61.988281 C 320.175781 63.765625 318.375 66.398438 318.21875 68.707031 C 319.875 69.824219 322.972656 69.402344 325.261719 68.761719 C 330.804688 66.816406 335.988281 63.824219 340.425781 59.96875 Z M 315.679688 59.292969 C 311.558594 61.792969 307.273438 64.203125 302.925781 66.414062 C 305.050781 64.699219 307.003906 62.566406 308.65625 60.863281 C 308.679688 60.84375 314.570312 57.121094 317.628906 55.972656 C 314.1875 57.132812 309.488281 59.363281 308.125 59.71875 C 305.769531 59.964844 303.042969 60.160156 300.527344 60.628906 C 304.863281 58.660156 309.304688 56.851562 313.71875 55.222656 C 308.003906 56.289062 302.488281 58.398438 297.515625 61.398438 C 294.515625 63.257812 292.632812 66.011719 292.46875 68.421875 C 294.199219 69.589844 297.4375 69.148438 299.832031 68.476562 C 305.625 66.445312 311.039062 63.320312 315.679688 59.292969 Z M 290.925781 58.617188 C 286.625 61.222656 282.15625 63.738281 277.621094 66.046875 C 279.839844 64.253906 281.878906 62.035156 283.597656 60.253906 C 283.628906 60.238281 289.765625 56.351562 292.957031 55.152344 C 289.371094 56.363281 284.46875 58.6875 283.042969 59.054688 C 280.589844 59.3125 277.742188 59.515625 275.117188 60.007812 C 279.644531 57.957031 284.277344 56.074219 288.878906 54.375 C 282.917969 55.484375 277.167969 57.6875 271.976562 60.8125 C 268.847656 62.753906 266.882812 65.621094 266.710938 68.140625 C 268.519531 69.355469 271.894531 68.898438 274.390625 68.195312 C 280.441406 66.078125 286.089844 62.820312 290.925781 58.617188 Z M 290.925781 58.617188 " fill-opacity="1" fill-rule="nonzero"/></g></g></g></svg>