<svg xmlns="http://www.w3.org/2000/svg" xmlns:xlink="http://www.w3.org/1999/xlink" width="600" zoomAndPan="magnify" viewBox="0 0 450 149.999998" height="200" preserveAspectRatio="xMidYMid meet" version="1.0"><defs><clipPath id="8cb07db0dc"><path d="M 26 44.359375 L 424 44.359375 L 424 105 L 26 105 Z M 26 44.359375 " clip-rule="nonzero"/></clipPath></defs><g clip-path="url(#8cb07db0dc)"><path fill="#8b1a1a" d="M 212.078125 83.222656 C 215.199219 82.957031 218.601562 82.316406 220.855469 81.046875 C 225.542969 78.402344 223.179688 74.316406 218.714844 75.828125 C 210.109375 78.742188 196.644531 77.132812 189.515625 70.570312 C 193.882812 79.421875 204.609375 83.847656 212.078125 83.222656 Z M 237.703125 83.222656 C 234.585938 82.957031 231.179688 82.316406 228.929688 81.046875 C 224.238281 78.402344 226.601562 74.316406 231.066406 75.828125 C 239.671875 78.742188 253.136719 77.132812 260.269531 70.570312 C 255.898438 79.421875 245.15625 83.847656 237.703125 83.222656 Z M 231.292969 60.640625 C 231.292969 64.765625 228.417969 65.351562 226.773438 69.945312 C 225.695312 72.933594 224.882812 77.664062 224.882812 81.863281 C 224.882812 77.664062 224.050781 72.933594 222.992188 69.945312 C 221.34375 65.351562 218.46875 64.765625 218.46875 60.640625 C 218.46875 57.386719 220.703125 55.101562 221.933594 52.753906 C 223.160156 50.410156 224.617188 47.628906 224.882812 44.359375 C 225.148438 47.628906 226.621094 50.410156 227.832031 52.753906 C 229.0625 55.082031 231.292969 57.386719 231.292969 60.640625 Z M 239.292969 67.054688 C 240.296875 69.871094 233.675781 70.304688 232.011719 70.628906 C 229.230469 71.15625 226.734375 72.632812 226.472656 75.941406 C 227.339844 74.65625 228.210938 73.976562 229.441406 73.976562 C 233.035156 73.976562 234.226562 74.957031 237.820312 74.957031 C 248.257812 74.957031 248.65625 61.152344 240.769531 61.152344 C 237.515625 61.152344 233.242188 63.628906 235.378906 67.222656 C 236.855469 69.683594 239.332031 68.035156 239.292969 67.054688 Z M 210.46875 67.054688 C 209.46875 69.871094 216.085938 70.304688 217.753906 70.628906 C 220.53125 71.15625 223.027344 72.632812 223.292969 75.941406 C 222.421875 74.65625 221.554688 73.976562 220.324219 73.976562 C 216.730469 73.976562 215.539062 74.957031 211.945312 74.957031 C 201.507812 74.957031 201.109375 61.152344 208.996094 61.152344 C 212.25 61.152344 216.523438 63.628906 214.386719 67.222656 C 212.910156 69.683594 210.453125 68.035156 210.46875 67.054688 Z M 33.636719 101.378906 C 35.261719 100.300781 36.832031 102.855469 35.207031 103.914062 C 32.558594 105.652344 28.964844 105.179688 27.167969 102.457031 C 24.632812 98.617188 27.546875 93.796875 31.972656 93.644531 C 32.726562 93.625 33.484375 93.644531 34.261719 93.644531 C 38.25 93.644531 42.242188 93.644531 46.230469 93.644531 C 61.117188 93.644531 76.019531 93.644531 90.902344 93.644531 C 109.230469 93.644531 127.539062 93.644531 145.863281 93.644531 C 160.65625 93.644531 175.464844 93.644531 190.253906 93.644531 C 194.148438 93.644531 198.027344 93.644531 201.921875 93.644531 C 202.640625 93.644531 203.339844 93.644531 204.058594 93.644531 C 210.148438 93.585938 215.878906 91.375 220.417969 87.289062 C 221.855469 86.003906 223.917969 88.160156 222.480469 89.464844 C 219.984375 91.714844 217.148438 93.53125 214.007812 94.761719 C 209.769531 96.425781 205.476562 96.632812 200.996094 96.632812 C 196.890625 96.632812 192.785156 96.632812 188.683594 96.632812 C 174.042969 96.632812 159.40625 96.632812 144.785156 96.632812 C 127.007812 96.632812 109.25 96.632812 91.472656 96.632812 C 76.851562 96.632812 62.230469 96.632812 47.613281 96.632812 C 43.453125 96.632812 39.292969 96.632812 35.128906 96.632812 C 34.203125 96.632812 33.277344 96.613281 32.351562 96.632812 C 32.21875 96.632812 32.085938 96.632812 31.953125 96.632812 C 30.382812 96.726562 29.136719 97.898438 29.25 99.527344 C 29.417969 101.796875 31.894531 102.515625 33.636719 101.378906 Z M 420.535156 99.546875 C 420.667969 97.917969 419.417969 96.746094 417.828125 96.652344 C 417.699219 96.652344 417.566406 96.652344 417.433594 96.652344 C 416.507812 96.632812 415.578125 96.652344 414.652344 96.652344 C 410.492188 96.652344 406.332031 96.652344 402.171875 96.652344 C 387.550781 96.652344 372.929688 96.652344 358.3125 96.652344 C 340.535156 96.652344 322.773438 96.652344 304.996094 96.652344 C 290.359375 96.652344 275.71875 96.652344 261.101562 96.652344 C 256.996094 96.652344 252.890625 96.652344 248.789062 96.652344 C 244.304688 96.652344 240.011719 96.460938 235.777344 94.777344 C 232.636719 93.550781 229.800781 91.734375 227.304688 89.484375 C 225.847656 88.179688 227.925781 86.023438 229.363281 87.308594 C 233.902344 91.394531 239.613281 93.605469 245.722656 93.664062 C 246.441406 93.664062 247.140625 93.664062 247.859375 93.664062 C 251.757812 93.664062 255.632812 93.664062 259.53125 93.664062 C 274.320312 93.664062 289.128906 93.664062 303.917969 93.664062 C 322.246094 93.664062 340.550781 93.664062 358.878906 93.664062 C 373.761719 93.664062 388.667969 93.664062 403.550781 93.664062 C 407.542969 93.664062 411.53125 93.664062 415.523438 93.664062 C 416.277344 93.664062 417.035156 93.644531 417.8125 93.664062 C 422.253906 93.8125 425.167969 98.636719 422.613281 102.476562 C 420.816406 105.179688 417.226562 105.652344 414.578125 103.933594 C 412.949219 102.875 414.519531 100.320312 416.148438 101.398438 C 417.886719 102.515625 420.363281 101.796875 420.535156 99.546875 Z M 420.535156 99.546875 " fill-opacity="1" fill-rule="evenodd"/></g></svg>