<svg xmlns="http://www.w3.org/2000/svg" xmlns:xlink="http://www.w3.org/1999/xlink" width="40" zoomAndPan="magnify" viewBox="0 0 30 30.000001" height="40" preserveAspectRatio="xMidYMid meet" version="1.0"><defs><clipPath id="c298b1dd65"><path d="M 2.804688 2.324219 L 27.484375 2.324219 L 27.484375 27 L 2.804688 27 Z M 2.804688 2.324219 " clip-rule="nonzero"/></clipPath></defs><g clip-path="url(#c298b1dd65)"><path fill="#064635" d="M 14.996094 2.324219 C 8.261719 2.324219 2.804688 7.78125 2.804688 14.515625 C 2.804688 21.25 8.261719 26.707031 14.996094 26.707031 C 21.730469 26.707031 27.1875 21.25 27.1875 14.515625 C 27.179688 7.78125 21.722656 2.324219 14.996094 2.324219 Z M 22.113281 11.769531 C 22.113281 11.769531 22.324219 16.433594 18.777344 19.328125 C 13.46875 23.644531 7.734375 20.140625 7.734375 20.140625 C 7.734375 20.140625 9.128906 20.160156 10.363281 19.832031 C 11.589844 19.507812 12.476562 18.703125 12.476562 18.703125 C 12.476562 18.703125 11.132812 18.429688 10.4375 17.921875 C 9.742188 17.417969 9.464844 16.445312 9.464844 16.445312 C 9.464844 16.445312 9.929688 16.488281 10.214844 16.476562 C 10.511719 16.464844 10.859375 16.328125 10.859375 16.328125 C 10.859375 16.328125 9.898438 16.214844 9.003906 15.210938 C 8.296875 14.417969 8.347656 13.097656 8.347656 13.097656 C 8.347656 13.097656 8.769531 13.351562 8.992188 13.40625 C 9.214844 13.46875 9.644531 13.46875 9.644531 13.46875 C 9.644531 13.46875 8.800781 12.972656 8.433594 11.675781 C 8.0625 10.386719 8.769531 9.078125 8.769531 9.078125 C 8.769531 9.078125 10.027344 10.597656 11.882812 11.570312 C 13.742188 12.539062 15.492188 12.507812 15.492188 12.507812 C 15.492188 12.507812 15.242188 11.738281 15.683594 10.597656 C 16.128906 9.457031 17.128906 8.632812 18.660156 8.519531 C 20.191406 8.390625 21.171875 9.554688 21.171875 9.554688 C 21.171875 9.554688 21.648438 9.46875 22.1875 9.269531 C 22.722656 9.078125 23.261719 8.824219 23.261719 8.824219 C 23.261719 8.824219 23.074219 9.40625 22.703125 9.859375 C 22.332031 10.3125 21.921875 10.585938 21.921875 10.585938 C 21.921875 10.585938 22.40625 10.554688 22.894531 10.417969 C 23.378906 10.28125 23.640625 10.144531 23.640625 10.144531 C 23.082031 11.074219 22.113281 11.769531 22.113281 11.769531 Z M 22.113281 11.769531 " fill-opacity="1" fill-rule="nonzero"/></g></svg>