<svg xmlns="http://www.w3.org/2000/svg" xmlns:xlink="http://www.w3.org/1999/xlink" width="40" zoomAndPan="magnify" viewBox="0 0 30 30.000001" height="40" preserveAspectRatio="xMidYMid meet" version="1.0"><defs><clipPath id="ef5c563c58"><path d="M 2.84375 2.359375 L 27.519531 2.359375 L 27.519531 27 L 2.84375 27 Z M 2.84375 2.359375 " clip-rule="nonzero"/></clipPath></defs><g clip-path="url(#ef5c563c58)"><path fill="#064635" d="M 15 2.359375 C 8.285156 2.359375 2.84375 7.800781 2.84375 14.515625 C 2.84375 21.230469 8.285156 26.671875 15 26.671875 C 21.714844 26.671875 27.15625 21.230469 27.15625 14.515625 C 27.148438 7.800781 21.703125 2.359375 15 2.359375 Z M 22 17.914062 C 21.863281 18.8125 21.082031 19.464844 20.179688 19.464844 L 9.8125 19.464844 C 8.90625 19.464844 8.125 18.8125 7.988281 17.914062 C 7.863281 17.085938 7.738281 15.925781 7.726562 14.503906 C 7.738281 13.085938 7.851562 11.9375 7.988281 11.09375 C 8.125 10.199219 8.90625 9.546875 9.8125 9.546875 L 20.179688 9.546875 C 21.082031 9.546875 21.863281 10.199219 22 11.09375 C 22.125 11.925781 22.253906 13.085938 22.261719 14.503906 C 22.253906 15.925781 22.125 17.085938 22 17.914062 Z M 22 17.914062 " fill-opacity="1" fill-rule="nonzero"/></g><path fill="#064635" d="M 13.464844 12.539062 L 13.464844 16.484375 L 17.136719 14.515625 Z M 13.464844 12.539062 " fill-opacity="1" fill-rule="nonzero"/></svg>