<svg xmlns="http://www.w3.org/2000/svg" xmlns:xlink="http://www.w3.org/1999/xlink" width="600" zoomAndPan="magnify" viewBox="0 0 450 149.999998" height="200" preserveAspectRatio="xMidYMid meet" version="1.0"><defs><clipPath id="a8133dedf1"><path d="M 86 28.070312 L 357 28.070312 L 357 116 L 86 116 Z M 86 28.070312 " clip-rule="nonzero"/></clipPath><clipPath id="3197d7df4a"><path d="M 349 28.070312 L 357 28.070312 L 357 42 L 349 42 Z M 349 28.070312 " clip-rule="nonzero"/></clipPath><clipPath id="5c78b7158b"><path d="M 85.542969 75.300781 L 364.4375 75.300781 L 364.4375 121.820312 L 85.542969 121.820312 Z M 85.542969 75.300781 " clip-rule="nonzero"/></clipPath></defs><g clip-path="url(#a8133dedf1)"><path fill="#8b1a1a" d="M 356.136719 28.074219 C 356.136719 28.074219 355.617188 29.101562 354.644531 31.027344 C 354.523438 31.269531 354.394531 31.523438 354.257812 31.792969 C 354.191406 31.925781 354.121094 32.0625 354.046875 32.207031 C 353.972656 32.34375 353.894531 32.484375 353.8125 32.628906 C 353.488281 33.210938 353.132812 33.84375 352.753906 34.527344 C 352.5625 34.867188 352.363281 35.222656 352.160156 35.589844 C 352.054688 35.773438 351.953125 35.960938 351.847656 36.152344 C 351.734375 36.335938 351.617188 36.523438 351.5 36.714844 C 351.03125 37.480469 350.53125 38.296875 350 39.152344 C 347.832031 42.550781 345.042969 46.597656 341.386719 50.882812 C 337.742188 55.171875 333.230469 59.6875 327.808594 64.023438 C 327.125 64.558594 326.449219 65.121094 325.742188 65.652344 C 325.03125 66.175781 324.308594 66.707031 323.578125 67.238281 C 323.214844 67.503906 322.847656 67.773438 322.480469 68.042969 C 322.101562 68.296875 321.722656 68.550781 321.339844 68.808594 C 320.574219 69.320312 319.804688 69.835938 319.027344 70.355469 C 315.855469 72.339844 312.53125 74.335938 308.957031 76.101562 C 301.875 79.746094 293.992188 82.75 285.664062 85.21875 C 284.617188 85.507812 283.566406 85.796875 282.511719 86.085938 C 281.980469 86.230469 281.449219 86.375 280.921875 86.519531 C 280.386719 86.648438 279.851562 86.777344 279.316406 86.910156 C 278.246094 87.167969 277.167969 87.425781 276.089844 87.6875 C 275.003906 87.917969 273.914062 88.148438 272.820312 88.378906 C 272.273438 88.496094 271.722656 88.609375 271.175781 88.726562 C 270.625 88.828125 270.074219 88.929688 269.519531 89.03125 C 268.414062 89.230469 267.304688 89.433594 266.191406 89.636719 C 265.078125 89.8125 263.957031 89.988281 262.835938 90.164062 C 262.273438 90.25 261.714844 90.335938 261.152344 90.425781 C 260.585938 90.5 260.023438 90.570312 259.457031 90.644531 C 258.328125 90.792969 257.195312 90.941406 256.058594 91.089844 C 254.921875 91.210938 253.78125 91.332031 252.640625 91.453125 L 250.925781 91.636719 C 250.355469 91.695312 249.78125 91.734375 249.207031 91.785156 C 248.0625 91.878906 246.914062 91.976562 245.765625 92.070312 C 244.613281 92.160156 243.460938 92.21875 242.308594 92.292969 C 241.15625 92.355469 240 92.445312 238.847656 92.480469 C 236.535156 92.570312 234.222656 92.683594 231.90625 92.710938 L 228.429688 92.777344 C 227.277344 92.785156 226.128906 92.792969 224.976562 92.796875 C 222.675781 92.8125 220.378906 92.828125 218.085938 92.839844 C 213.492188 92.84375 208.921875 92.847656 204.382812 92.847656 C 202.117188 92.851562 199.859375 92.851562 197.617188 92.855469 C 195.375 92.867188 193.144531 92.878906 190.925781 92.890625 C 186.496094 92.957031 182.125 93.011719 177.84375 93.210938 C 176.773438 93.257812 175.703125 93.28125 174.644531 93.34375 C 173.585938 93.414062 172.53125 93.488281 171.484375 93.558594 C 170.4375 93.628906 169.394531 93.699219 168.355469 93.769531 C 167.835938 93.796875 167.320312 93.851562 166.808594 93.90625 C 166.292969 93.960938 165.78125 94.011719 165.269531 94.066406 C 164.25 94.171875 163.234375 94.277344 162.222656 94.382812 C 161.71875 94.433594 161.214844 94.484375 160.714844 94.535156 C 160.214844 94.601562 159.714844 94.679688 159.21875 94.75 C 157.234375 95.035156 155.277344 95.320312 153.34375 95.601562 C 151.425781 95.960938 149.53125 96.320312 147.664062 96.671875 C 147.199219 96.757812 146.734375 96.847656 146.273438 96.933594 C 145.808594 97.015625 145.355469 97.140625 144.898438 97.238281 C 143.988281 97.453125 143.085938 97.660156 142.1875 97.871094 C 141.292969 98.078125 140.40625 98.285156 139.523438 98.488281 C 139.085938 98.589844 138.648438 98.691406 138.210938 98.792969 C 137.777344 98.914062 137.347656 99.03125 136.917969 99.148438 C 135.203125 99.617188 133.519531 100.078125 131.875 100.53125 C 131.460938 100.644531 131.050781 100.757812 130.644531 100.867188 C 130.234375 100.976562 129.832031 101.089844 129.433594 101.21875 C 128.632812 101.46875 127.839844 101.714844 127.058594 101.957031 C 125.496094 102.445312 123.96875 102.921875 122.476562 103.386719 C 120.984375 103.832031 119.550781 104.351562 118.148438 104.832031 C 116.75 105.3125 115.390625 105.78125 114.070312 106.234375 C 113.414062 106.464844 112.765625 106.6875 112.128906 106.90625 C 111.808594 107.015625 111.496094 107.125 111.179688 107.234375 C 110.871094 107.351562 110.5625 107.464844 110.257812 107.578125 C 109.035156 108.035156 107.855469 108.472656 106.722656 108.894531 C 104.460938 109.738281 102.382812 110.511719 100.503906 111.214844 C 93.039062 114.164062 88.773438 115.851562 88.773438 115.851562 L 86.578125 110.269531 C 86.578125 110.269531 90.910156 108.65625 98.496094 105.832031 C 100.410156 105.164062 102.527344 104.421875 104.832031 103.617188 C 105.984375 103.214844 107.183594 102.796875 108.429688 102.359375 C 108.742188 102.25 109.054688 102.140625 109.371094 102.03125 C 109.691406 101.925781 110.011719 101.824219 110.339844 101.71875 C 110.988281 101.507812 111.652344 101.292969 112.324219 101.078125 C 113.667969 100.644531 115.058594 100.195312 116.488281 99.738281 C 117.917969 99.28125 119.378906 98.785156 120.910156 98.363281 C 122.4375 97.917969 124.003906 97.464844 125.605469 97.003906 C 126.40625 96.769531 127.214844 96.535156 128.035156 96.296875 C 128.441406 96.175781 128.859375 96.070312 129.277344 95.964844 C 129.695312 95.859375 130.117188 95.753906 130.539062 95.648438 C 132.234375 95.21875 133.960938 94.785156 135.722656 94.339844 C 136.164062 94.230469 136.605469 94.117188 137.046875 94.003906 C 137.496094 93.910156 137.949219 93.816406 138.402344 93.71875 C 139.308594 93.527344 140.222656 93.335938 141.144531 93.140625 C 142.066406 92.945312 142.996094 92.75 143.933594 92.550781 C 144.40625 92.457031 144.871094 92.34375 145.347656 92.265625 C 145.824219 92.1875 146.304688 92.105469 146.785156 92.027344 C 148.707031 91.703125 150.65625 91.378906 152.632812 91.046875 C 154.621094 90.800781 156.640625 90.546875 158.679688 90.292969 C 159.191406 90.234375 159.703125 90.164062 160.214844 90.109375 C 160.730469 90.066406 161.25 90.023438 161.765625 89.980469 C 162.800781 89.894531 163.84375 89.808594 164.890625 89.722656 C 165.414062 89.679688 165.941406 89.636719 166.464844 89.589844 C 166.992188 89.546875 167.519531 89.5 168.050781 89.484375 C 169.109375 89.433594 170.171875 89.382812 171.242188 89.332031 C 172.3125 89.28125 173.386719 89.230469 174.464844 89.179688 C 175.542969 89.140625 176.625 89.136719 177.710938 89.113281 C 182.0625 88.996094 186.46875 89.03125 190.925781 89.054688 C 193.152344 89.089844 195.394531 89.125 197.644531 89.15625 C 199.890625 89.203125 202.152344 89.246094 204.417969 89.289062 C 208.949219 89.378906 213.515625 89.46875 218.097656 89.5625 C 220.390625 89.59375 222.6875 89.625 224.988281 89.65625 C 226.140625 89.671875 227.289062 89.691406 228.441406 89.707031 L 231.871094 89.710938 C 234.164062 89.730469 236.453125 89.664062 238.742188 89.625 C 239.886719 89.613281 241.027344 89.546875 242.167969 89.507812 C 243.3125 89.457031 244.453125 89.421875 245.589844 89.355469 C 246.730469 89.285156 247.867188 89.214844 249.003906 89.144531 C 249.570312 89.105469 250.140625 89.078125 250.707031 89.03125 L 252.402344 88.886719 C 253.53125 88.789062 254.664062 88.691406 255.789062 88.59375 C 256.914062 88.472656 258.035156 88.347656 259.15625 88.222656 C 259.714844 88.164062 260.273438 88.101562 260.835938 88.039062 C 261.390625 87.964844 261.949219 87.890625 262.503906 87.816406 C 263.617188 87.664062 264.726562 87.515625 265.832031 87.363281 C 266.933594 87.183594 268.035156 87.007812 269.128906 86.828125 C 269.679688 86.742188 270.226562 86.652344 270.773438 86.5625 C 271.316406 86.460938 271.859375 86.359375 272.402344 86.253906 C 273.488281 86.046875 274.566406 85.84375 275.644531 85.636719 C 276.71875 85.402344 277.785156 85.164062 278.851562 84.933594 C 279.382812 84.8125 279.914062 84.695312 280.441406 84.582031 C 280.96875 84.449219 281.496094 84.316406 282.019531 84.183594 C 283.066406 83.917969 284.113281 83.652344 285.152344 83.390625 C 293.425781 81.121094 301.269531 78.3125 308.34375 74.855469 C 311.90625 73.179688 315.234375 71.277344 318.410156 69.378906 C 319.191406 68.878906 319.964844 68.382812 320.730469 67.890625 C 321.113281 67.644531 321.496094 67.398438 321.875 67.15625 C 322.242188 66.898438 322.609375 66.640625 322.976562 66.382812 C 323.707031 65.871094 324.433594 65.363281 325.152344 64.859375 C 325.863281 64.34375 326.542969 63.804688 327.230469 63.285156 C 332.6875 59.097656 337.257812 54.710938 340.96875 50.519531 C 344.691406 46.332031 347.550781 42.359375 349.785156 39.015625 C 350.328125 38.167969 350.84375 37.367188 351.328125 36.613281 C 351.449219 36.421875 351.570312 36.238281 351.6875 36.054688 C 351.796875 35.867188 351.90625 35.683594 352.007812 35.503906 C 352.222656 35.140625 352.425781 34.789062 352.625 34.453125 C 353.019531 33.777344 353.386719 33.152344 353.71875 32.582031 C 353.804688 32.4375 353.882812 32.296875 353.964844 32.160156 C 354.039062 32.023438 354.113281 31.886719 354.183594 31.753906 C 354.324219 31.488281 354.457031 31.234375 354.585938 30.996094 C 355.597656 29.089844 356.136719 28.074219 356.136719 28.074219 " fill-opacity="1" fill-rule="nonzero"/></g><path fill="#8b1a1a" d="M 272.246094 100.628906 C 272.246094 100.628906 271.324219 99.246094 269.46875 97.640625 C 268.535156 96.820312 267.375 95.941406 265.980469 95.144531 C 265.28125 94.742188 264.527344 94.378906 263.710938 94.023438 C 262.894531 93.667969 262.019531 93.351562 261.082031 93.089844 C 259.207031 92.585938 257.355469 92.140625 255.613281 91.855469 C 253.867188 91.582031 252.222656 91.367188 250.757812 91.328125 C 249.296875 91.296875 248.007812 91.359375 246.980469 91.582031 C 245.953125 91.808594 245.1875 92.183594 244.761719 92.714844 C 243.910156 93.777344 244.597656 95.261719 246.457031 96.796875 C 247.386719 97.5625 248.609375 98.351562 250.082031 99.089844 C 251.550781 99.808594 253.269531 100.492188 255.183594 101.085938 C 256.140625 101.363281 257.125 101.574219 258.117188 101.726562 C 259.113281 101.875 260.109375 101.988281 261.09375 102.011719 C 262.078125 102.042969 263.046875 102.03125 263.972656 101.992188 C 264.4375 101.96875 264.890625 101.945312 265.332031 101.90625 C 265.773438 101.863281 266.203125 101.8125 266.617188 101.761719 C 268.273438 101.542969 269.679688 101.292969 270.671875 101.050781 C 271.667969 100.808594 272.246094 100.628906 272.246094 100.628906 " fill-opacity="1" fill-rule="nonzero"/><path fill="#8b1a1a" d="M 273.289062 100.066406 C 273.289062 100.066406 273.496094 100.109375 273.863281 100.179688 C 274.234375 100.25 274.777344 100.363281 275.464844 100.457031 C 276.152344 100.554688 276.988281 100.664062 277.9375 100.765625 C 278.886719 100.863281 279.957031 100.980469 281.113281 101.019531 C 282.269531 101.070312 283.515625 101.101562 284.820312 101.09375 C 286.121094 101.070312 287.484375 100.984375 288.871094 100.863281 C 289.226562 100.828125 289.574219 100.792969 289.917969 100.757812 C 290.265625 100.71875 290.617188 100.664062 290.96875 100.613281 C 291.671875 100.503906 292.375 100.382812 293.078125 100.25 C 293.777344 100.109375 294.480469 99.972656 295.167969 99.78125 C 295.859375 99.597656 296.546875 99.390625 297.21875 99.171875 C 297.21875 99.171875 296.695312 99.472656 295.644531 99.914062 C 295.382812 100.019531 295.085938 100.144531 294.757812 100.261719 C 294.429688 100.378906 294.066406 100.5 293.671875 100.621094 C 292.882812 100.867188 291.960938 101.125 290.910156 101.375 C 290.382812 101.5 289.820312 101.609375 289.230469 101.707031 C 288.636719 101.804688 288.015625 101.898438 287.363281 101.984375 C 286.707031 102.070312 286.019531 102.144531 285.304688 102.207031 C 284.585938 102.253906 283.835938 102.289062 283.058594 102.308594 C 282.28125 102.324219 281.472656 102.328125 280.636719 102.316406 C 279.800781 102.296875 278.9375 102.234375 278.042969 102.164062 C 277.152344 102.089844 276.234375 101.996094 275.289062 101.878906 C 274.34375 101.738281 273.375 101.574219 272.378906 101.382812 L 273.289062 100.066406 " fill-opacity="1" fill-rule="nonzero"/><path fill="#8b1a1a" d="M 267.617188 75.015625 C 267.617188 75.015625 267.34375 76.621094 266.277344 78.753906 C 265.738281 79.800781 264.996094 80.980469 263.984375 82.15625 C 263.480469 82.738281 262.910156 83.335938 262.261719 83.886719 C 261.613281 84.433594 260.886719 84.964844 260.082031 85.457031 C 258.472656 86.460938 256.808594 87.257812 255.195312 87.921875 C 253.582031 88.597656 252.011719 89.039062 250.589844 89.347656 C 249.167969 89.65625 247.890625 89.746094 246.851562 89.664062 C 245.808594 89.582031 245.007812 89.3125 244.53125 88.839844 C 243.578125 87.902344 244.101562 86.335938 245.660156 84.566406 C 246.4375 83.679688 247.476562 82.753906 248.714844 81.8125 C 249.949219 80.851562 251.386719 79.894531 252.976562 78.984375 C 253.765625 78.511719 254.589844 78.101562 255.421875 77.746094 C 256.253906 77.386719 257.101562 77.105469 257.929688 76.820312 C 258.761719 76.546875 259.585938 76.320312 260.382812 76.132812 C 260.777344 76.039062 261.171875 75.953125 261.550781 75.875 C 261.929688 75.789062 262.300781 75.714844 262.65625 75.648438 C 264.085938 75.367188 265.332031 75.238281 266.214844 75.140625 C 267.09375 75.039062 267.617188 75.015625 267.617188 75.015625 " fill-opacity="1" fill-rule="nonzero"/><path fill="#8b1a1a" d="M 268.652344 75.203125 C 268.652344 75.203125 268.804688 75.09375 269.074219 74.90625 C 269.347656 74.710938 269.757812 74.453125 270.261719 74.101562 C 270.765625 73.753906 271.375 73.34375 272.070312 72.898438 C 272.761719 72.449219 273.550781 71.984375 274.378906 71.453125 C 275.214844 70.933594 276.113281 70.398438 277.054688 69.875 C 277.992188 69.332031 278.964844 68.78125 279.972656 68.273438 C 280.230469 68.144531 280.484375 68.019531 280.734375 67.898438 C 280.992188 67.765625 281.246094 67.640625 281.496094 67.515625 C 282.003906 67.261719 282.519531 67.023438 283.039062 66.796875 C 283.558594 66.570312 284.089844 66.371094 284.609375 66.160156 C 285.125 65.949219 285.648438 65.757812 286.171875 65.585938 C 286.171875 65.585938 285.699219 65.613281 284.832031 65.800781 C 284.617188 65.847656 284.378906 65.90625 284.113281 65.96875 C 283.84375 66.03125 283.550781 66.101562 283.238281 66.1875 C 282.613281 66.363281 281.894531 66.589844 281.097656 66.886719 C 277.875 68.039062 273.351562 70.226562 267.484375 74.265625 L 268.652344 75.203125 " fill-opacity="1" fill-rule="nonzero"/><path fill="#8b1a1a" d="M 293.425781 94.136719 C 293.425781 94.136719 293.179688 93.859375 292.703125 93.421875 C 292.226562 92.984375 291.515625 92.386719 290.589844 91.765625 C 289.664062 91.140625 288.523438 90.492188 287.1875 89.945312 C 285.847656 89.378906 284.304688 88.890625 282.574219 88.640625 C 280.835938 88.375 279.132812 88.175781 277.542969 88.113281 C 275.949219 88.023438 274.457031 88.015625 273.144531 88.136719 C 271.832031 88.246094 270.683594 88.417969 269.789062 88.730469 C 268.890625 89.03125 268.238281 89.457031 267.90625 89.957031 C 267.578125 90.464844 267.601562 91.039062 267.933594 91.636719 C 268.101562 91.933594 268.347656 92.242188 268.664062 92.550781 C 268.980469 92.851562 269.367188 93.152344 269.824219 93.449219 C 270.730469 94.042969 271.90625 94.617188 273.304688 95.136719 C 274.699219 95.65625 276.3125 96.0625 278.097656 96.398438 C 278.992188 96.574219 279.898438 96.644531 280.808594 96.671875 C 281.722656 96.699219 282.632812 96.675781 283.523438 96.613281 C 285.304688 96.464844 287.007812 96.132812 288.476562 95.789062 C 289.945312 95.410156 291.183594 94.992188 292.054688 94.679688 C 292.488281 94.523438 292.832031 94.390625 293.066406 94.296875 C 293.296875 94.195312 293.425781 94.136719 293.425781 94.136719 " fill-opacity="1" fill-rule="nonzero"/><path fill="#8b1a1a" d="M 294.300781 93.503906 C 294.300781 93.503906 295.042969 93.558594 296.304688 93.589844 C 297.574219 93.640625 299.355469 93.578125 301.457031 93.425781 C 302.511719 93.359375 303.628906 93.199219 304.800781 93.023438 C 305.972656 92.839844 307.199219 92.636719 308.425781 92.320312 C 309.65625 92.007812 310.910156 91.675781 312.132812 91.242188 C 313.359375 90.800781 314.566406 90.304688 315.726562 89.75 C 315.726562 89.75 315.292969 90.078125 314.402344 90.597656 C 313.507812 91.105469 312.164062 91.847656 310.320312 92.511719 C 309.398438 92.847656 308.363281 93.210938 307.203125 93.523438 C 306.039062 93.820312 304.757812 94.101562 303.363281 94.34375 C 301.964844 94.574219 300.445312 94.71875 298.824219 94.824219 C 298.015625 94.882812 297.171875 94.878906 296.304688 94.875 C 295.441406 94.867188 294.546875 94.839844 293.632812 94.792969 L 294.300781 93.503906 " fill-opacity="1" fill-rule="nonzero"/><path fill="#8b1a1a" d="M 286.398438 71.789062 C 286.398438 71.789062 286.386719 72.15625 286.28125 72.773438 C 286.179688 73.386719 285.984375 74.25 285.628906 75.25 C 285.273438 76.253906 284.75 77.394531 283.984375 78.5625 C 283.214844 79.710938 282.195312 80.859375 280.867188 81.925781 C 279.535156 82.980469 278.132812 83.867188 276.765625 84.640625 C 275.390625 85.382812 274.035156 85.957031 272.796875 86.378906 C 271.554688 86.789062 270.417969 86.988281 269.480469 87.023438 C 268.542969 87.050781 267.804688 86.902344 267.332031 86.515625 C 266.859375 86.132812 266.703125 85.582031 266.816406 84.910156 C 266.875 84.578125 267 84.210938 267.1875 83.828125 C 267.375 83.433594 267.621094 83.015625 267.925781 82.582031 C 268.53125 81.714844 269.363281 80.773438 270.371094 79.816406 C 271.378906 78.859375 272.550781 77.828125 273.867188 76.859375 C 274.527344 76.378906 275.207031 75.917969 275.90625 75.511719 C 276.605469 75.105469 277.320312 74.746094 278.03125 74.429688 C 279.445312 73.777344 280.839844 73.257812 282.085938 72.890625 C 283.320312 72.488281 284.394531 72.210938 285.167969 72.039062 C 285.550781 71.953125 285.863281 71.894531 286.074219 71.855469 C 286.28125 71.8125 286.398438 71.789062 286.398438 71.789062 " fill-opacity="1" fill-rule="nonzero"/><path fill="#8b1a1a" d="M 287.332031 71.832031 C 287.332031 71.832031 287.800781 71.378906 288.621094 70.664062 C 289.449219 69.96875 290.585938 68.929688 291.945312 67.84375 C 292.632812 67.308594 293.34375 66.699219 294.105469 66.113281 C 294.867188 65.523438 295.679688 64.957031 296.484375 64.355469 C 297.296875 63.761719 298.152344 63.21875 299.003906 62.683594 C 299.851562 62.140625 300.722656 61.648438 301.609375 61.226562 C 301.609375 61.226562 301.191406 61.304688 300.445312 61.566406 C 299.695312 61.820312 298.648438 62.300781 297.296875 62.984375 C 296.625 63.332031 295.894531 63.769531 295.097656 64.265625 C 294.289062 64.75 293.425781 65.324219 292.507812 66 C 291.582031 66.664062 290.582031 67.394531 289.539062 68.265625 C 289.023438 68.707031 288.46875 69.132812 287.914062 69.613281 C 287.355469 70.085938 286.78125 70.59375 286.195312 71.132812 L 287.332031 71.832031 " fill-opacity="1" fill-rule="nonzero"/><path fill="#8b1a1a" d="M 311.445312 85.699219 C 311.445312 85.699219 310.4375 84.828125 308.65625 83.980469 C 307.765625 83.558594 306.671875 83.105469 305.421875 82.777344 C 304.171875 82.449219 302.765625 82.242188 301.191406 82.191406 C 299.625 82.15625 298.117188 82.230469 296.691406 82.320312 C 295.273438 82.417969 293.972656 82.632812 292.816406 82.851562 C 291.664062 83.082031 290.683594 83.390625 289.925781 83.769531 C 289.167969 84.132812 288.632812 84.550781 288.398438 85.042969 C 287.925781 86.015625 288.730469 87.054688 290.480469 87.921875 C 291.355469 88.363281 292.453125 88.707031 293.75 89.003906 C 294.394531 89.148438 295.089844 89.273438 295.824219 89.375 C 296.5625 89.480469 297.332031 89.523438 298.140625 89.5625 C 298.949219 89.59375 299.769531 89.566406 300.582031 89.496094 C 301.394531 89.425781 302.195312 89.265625 302.976562 89.101562 C 303.757812 88.925781 304.515625 88.726562 305.238281 88.507812 C 305.960938 88.28125 306.636719 88.015625 307.265625 87.765625 C 308.523438 87.253906 309.582031 86.773438 310.304688 86.359375 C 311.03125 85.960938 311.445312 85.699219 311.445312 85.699219 " fill-opacity="1" fill-rule="nonzero"/><path fill="#8b1a1a" d="M 312.144531 85.039062 C 312.144531 85.039062 312.316406 85.027344 312.617188 85.007812 C 312.921875 84.976562 313.375 84.949219 313.933594 84.875 C 315.046875 84.71875 316.628906 84.476562 318.46875 84.070312 C 319.375 83.84375 320.351562 83.582031 321.367188 83.28125 C 321.871094 83.125 322.394531 82.972656 322.910156 82.785156 C 323.425781 82.59375 323.949219 82.398438 324.472656 82.1875 C 324.996094 81.976562 325.523438 81.753906 326.046875 81.519531 C 326.316406 81.398438 326.578125 81.277344 326.835938 81.160156 C 327.097656 81.023438 327.351562 80.890625 327.605469 80.757812 C 328.625 80.210938 329.625 79.621094 330.578125 78.984375 C 330.578125 78.984375 330.238281 79.332031 329.519531 79.898438 C 329.160156 80.183594 328.703125 80.523438 328.148438 80.90625 C 327.871094 81.09375 327.570312 81.296875 327.242188 81.503906 C 326.914062 81.707031 326.550781 81.90625 326.167969 82.113281 C 325.398438 82.53125 324.527344 82.96875 323.546875 83.40625 C 322.566406 83.84375 321.460938 84.226562 320.257812 84.617188 C 319.65625 84.804688 319.03125 85.007812 318.371094 85.167969 C 317.707031 85.328125 317.019531 85.480469 316.308594 85.621094 C 315.59375 85.761719 314.859375 85.894531 314.09375 86.007812 C 313.324219 86.105469 312.527344 86.1875 311.707031 86.25 L 312.144531 85.039062 " fill-opacity="1" fill-rule="nonzero"/><path fill="#8b1a1a" d="M 302.503906 66.890625 C 302.503906 66.890625 302.632812 68.183594 302.265625 70.050781 C 302.082031 70.984375 301.753906 72.027344 301.21875 73.140625 C 300.6875 74.246094 299.945312 75.417969 298.890625 76.480469 C 297.839844 77.554688 296.734375 78.550781 295.601562 79.347656 C 294.476562 80.15625 293.367188 80.867188 292.308594 81.339844 C 291.257812 81.828125 290.285156 82.160156 289.46875 82.300781 C 288.640625 82.425781 287.964844 82.347656 287.507812 82.066406 C 286.589844 81.503906 286.714844 80.191406 287.597656 78.546875 C 288.042969 77.734375 288.652344 76.785156 289.429688 75.828125 C 289.8125 75.34375 290.238281 74.851562 290.695312 74.359375 C 291.152344 73.867188 291.632812 73.335938 292.152344 72.828125 C 292.667969 72.316406 293.214844 71.851562 293.785156 71.421875 C 294.351562 70.996094 294.921875 70.574219 295.503906 70.210938 C 296.085938 69.839844 296.667969 69.507812 297.238281 69.210938 C 297.804688 68.90625 298.34375 68.617188 298.863281 68.375 C 299.890625 67.878906 300.820312 67.542969 301.460938 67.273438 C 302.105469 67.015625 302.503906 66.890625 302.503906 66.890625 " fill-opacity="1" fill-rule="nonzero"/><path fill="#8b1a1a" d="M 303.328125 66.824219 C 303.328125 66.824219 303.417969 66.710938 303.585938 66.511719 C 303.753906 66.304688 304.007812 66.023438 304.316406 65.648438 C 304.929688 64.898438 305.8125 63.886719 306.867188 62.757812 C 308.953125 60.457031 311.625 57.691406 314.488281 55.71875 C 314.488281 55.71875 314.128906 55.839844 313.507812 56.164062 C 313.195312 56.324219 312.820312 56.539062 312.390625 56.8125 C 312.171875 56.953125 311.945312 57.105469 311.703125 57.277344 C 311.460938 57.445312 311.199219 57.617188 310.925781 57.8125 C 310.378906 58.203125 309.789062 58.667969 309.160156 59.214844 C 308.53125 59.761719 307.828125 60.347656 307.113281 61.054688 C 306.75 61.402344 306.390625 61.792969 306 62.175781 C 305.609375 62.5625 305.210938 62.972656 304.804688 63.414062 C 304.402344 63.851562 303.988281 64.320312 303.566406 64.816406 C 303.132812 65.292969 302.6875 65.800781 302.238281 66.339844 L 303.328125 66.824219 " fill-opacity="1" fill-rule="nonzero"/><path fill="#8b1a1a" d="M 325.660156 76.21875 C 325.660156 76.21875 324.679688 75.585938 323.035156 75.074219 C 322.207031 74.804688 321.210938 74.550781 320.085938 74.417969 C 318.957031 74.277344 317.71875 74.285156 316.347656 74.425781 C 315.667969 74.503906 314.996094 74.601562 314.351562 74.71875 C 313.707031 74.835938 313.078125 74.964844 312.464844 75.085938 C 311.242188 75.34375 310.132812 75.660156 309.171875 76.023438 C 307.222656 76.679688 305.890625 77.546875 305.597656 78.449219 C 305.449219 78.894531 305.582031 79.320312 305.953125 79.703125 C 306.324219 80.089844 306.9375 80.425781 307.738281 80.683594 C 309.34375 81.195312 311.769531 81.476562 314.589844 81.1875 C 315.296875 81.117188 316.007812 81.007812 316.703125 80.835938 C 317.390625 80.65625 318.074219 80.4375 318.730469 80.195312 C 319.386719 79.953125 320.023438 79.6875 320.625 79.410156 C 321.21875 79.117188 321.773438 78.8125 322.289062 78.515625 C 322.804688 78.222656 323.273438 77.933594 323.6875 77.664062 C 324.105469 77.402344 324.464844 77.15625 324.753906 76.933594 C 325.332031 76.496094 325.660156 76.21875 325.660156 76.21875 " fill-opacity="1" fill-rule="nonzero"/><path fill="#8b1a1a" d="M 326.183594 75.558594 C 326.183594 75.558594 326.753906 75.445312 327.714844 75.199219 C 328.671875 74.949219 329.992188 74.519531 331.535156 73.953125 C 332.3125 73.679688 333.113281 73.320312 333.945312 72.929688 C 334.78125 72.539062 335.644531 72.113281 336.507812 71.636719 C 337.351562 71.136719 338.203125 70.601562 339.027344 70.027344 C 339.4375 69.734375 339.851562 69.445312 340.242188 69.132812 C 340.628906 68.8125 341.007812 68.488281 341.371094 68.152344 C 341.371094 68.152344 341.125 68.492188 340.582031 69.078125 C 340.042969 69.664062 339.160156 70.441406 337.953125 71.363281 C 337.648438 71.59375 337.324219 71.828125 336.976562 72.070312 C 336.628906 72.3125 336.242188 72.539062 335.84375 72.78125 C 335.042969 73.257812 334.144531 73.746094 333.160156 74.234375 C 331.152344 75.148438 328.773438 76.0625 325.957031 76.664062 L 326.183594 75.558594 " fill-opacity="1" fill-rule="nonzero"/><path fill="#8b1a1a" d="M 315.621094 61.007812 C 315.621094 61.007812 315.890625 62.113281 315.800781 63.777344 C 315.75 64.601562 315.597656 65.550781 315.269531 66.578125 C 314.9375 67.597656 314.445312 68.71875 313.660156 69.757812 C 313.269531 70.285156 312.863281 70.792969 312.445312 71.28125 C 312.03125 71.769531 311.605469 72.234375 311.160156 72.644531 C 310.28125 73.476562 309.390625 74.203125 308.550781 74.773438 C 306.832031 75.855469 305.332031 76.355469 304.476562 75.976562 C 304.042969 75.78125 303.816406 75.398438 303.765625 74.871094 C 303.722656 74.351562 303.851562 73.679688 304.128906 72.898438 C 304.679688 71.339844 305.851562 69.4375 307.378906 67.40625 C 307.765625 66.902344 308.1875 66.441406 308.625 65.996094 C 309.054688 65.539062 309.503906 65.121094 309.964844 64.730469 C 310.421875 64.34375 310.886719 63.988281 311.34375 63.664062 C 311.789062 63.320312 312.226562 63.011719 312.644531 62.734375 C 313.0625 62.460938 313.460938 62.21875 313.820312 62.007812 C 314.179688 61.800781 314.503906 61.625 314.765625 61.46875 C 315.292969 61.164062 315.621094 61.007812 315.621094 61.007812 " fill-opacity="1" fill-rule="nonzero"/><path fill="#8b1a1a" d="M 316.324219 60.847656 C 316.324219 60.847656 316.582031 60.410156 317.042969 59.710938 C 317.5 59 318.121094 57.984375 318.90625 56.882812 C 319.304688 56.339844 319.703125 55.730469 320.144531 55.125 C 320.585938 54.519531 321.058594 53.910156 321.554688 53.304688 C 322.035156 52.679688 322.539062 52.070312 323.078125 51.492188 C 323.34375 51.199219 323.625 50.925781 323.898438 50.644531 C 324.167969 50.359375 324.445312 50.085938 324.730469 49.828125 C 324.730469 49.828125 324.433594 49.980469 323.9375 50.347656 C 323.445312 50.722656 322.703125 51.257812 321.863281 52.09375 C 321.652344 52.300781 321.429688 52.523438 321.207031 52.769531 C 320.980469 53.011719 320.730469 53.253906 320.484375 53.527344 C 319.988281 54.066406 319.464844 54.683594 318.929688 55.390625 C 317.8125 56.753906 316.640625 58.492188 315.324219 60.5625 L 316.324219 60.847656 " fill-opacity="1" fill-rule="nonzero"/><path fill="#8b1a1a" d="M 337.179688 65.839844 C 337.179688 65.839844 336.953125 65.734375 336.539062 65.59375 C 336.128906 65.453125 335.53125 65.28125 334.792969 65.152344 C 334.058594 65.023438 333.179688 64.933594 332.214844 64.960938 C 331.726562 64.972656 331.230469 65.027344 330.691406 65.09375 C 330.15625 65.160156 329.601562 65.265625 329.03125 65.417969 C 326.777344 66.058594 324.664062 66.808594 323.125 67.671875 C 321.554688 68.480469 320.519531 69.367188 320.390625 70.183594 C 320.257812 70.996094 321.054688 71.570312 322.492188 71.816406 C 323.210938 71.9375 324.089844 71.976562 325.09375 71.917969 C 325.34375 71.90625 325.601562 71.886719 325.867188 71.859375 C 326.128906 71.828125 326.394531 71.785156 326.667969 71.742188 C 327.21875 71.648438 327.789062 71.53125 328.382812 71.390625 C 328.976562 71.246094 329.5625 71.054688 330.136719 70.832031 C 330.703125 70.601562 331.25 70.324219 331.777344 70.039062 C 332.304688 69.75 332.808594 69.445312 333.285156 69.132812 C 333.523438 68.980469 333.753906 68.824219 333.972656 68.667969 C 334.1875 68.503906 334.394531 68.34375 334.59375 68.1875 C 335.390625 67.550781 336.035156 66.964844 336.484375 66.539062 C 336.707031 66.324219 336.882812 66.152344 337 66.03125 C 337.121094 65.910156 337.179688 65.839844 337.179688 65.839844 " fill-opacity="1" fill-rule="nonzero"/><path fill="#8b1a1a" d="M 337.539062 65.210938 C 337.539062 65.210938 338.003906 65.042969 338.777344 64.71875 C 339.167969 64.554688 339.636719 64.351562 340.164062 64.105469 C 340.425781 63.984375 340.707031 63.855469 340.992188 63.714844 C 341.277344 63.5625 341.574219 63.40625 341.878906 63.234375 C 342.488281 62.898438 343.136719 62.519531 343.804688 62.105469 C 344.136719 61.898438 344.480469 61.683594 344.816406 61.457031 C 345.148438 61.222656 345.484375 60.976562 345.816406 60.726562 C 346.476562 60.21875 347.140625 59.683594 347.78125 59.113281 C 348.105469 58.835938 348.40625 58.535156 348.699219 58.226562 C 348.992188 57.917969 349.277344 57.605469 349.550781 57.289062 C 349.550781 57.289062 349.378906 57.601562 348.984375 58.148438 C 348.78125 58.417969 348.539062 58.761719 348.207031 59.125 C 347.871094 59.492188 347.480469 59.90625 347.015625 60.351562 C 346.546875 60.800781 346.011719 61.28125 345.402344 61.785156 C 344.78125 62.277344 344.066406 62.773438 343.28125 63.285156 C 341.726562 64.328125 339.761719 65.296875 337.484375 66.1875 L 337.539062 65.210938 " fill-opacity="1" fill-rule="nonzero"/><path fill="#8b1a1a" d="M 326.800781 54.078125 C 326.800781 54.078125 326.894531 54.308594 326.996094 54.710938 C 327.097656 55.113281 327.214844 55.691406 327.265625 56.402344 C 327.320312 57.109375 327.308594 57.949219 327.160156 58.867188 C 327.078125 59.324219 326.976562 59.816406 326.8125 60.296875 C 326.644531 60.777344 326.429688 61.273438 326.167969 61.773438 C 325.125 63.800781 323.722656 65.496094 322.4375 66.6875 C 321.121094 67.828125 319.894531 68.429688 319.121094 68.222656 C 318.34375 68.011719 318.15625 67.03125 318.4375 65.644531 C 318.574219 64.949219 318.832031 64.15625 319.191406 63.304688 C 319.28125 63.089844 319.378906 62.875 319.480469 62.65625 C 319.578125 62.429688 319.683594 62.199219 319.792969 61.96875 C 320.011719 61.503906 320.253906 61.035156 320.519531 60.554688 C 320.789062 60.078125 321.089844 59.628906 321.410156 59.199219 C 321.726562 58.765625 322.054688 58.339844 322.398438 57.953125 C 322.742188 57.5625 323.09375 57.195312 323.441406 56.859375 C 323.808594 56.519531 324.144531 56.207031 324.457031 55.917969 C 325.097656 55.335938 325.683594 54.875 326.109375 54.5625 C 326.324219 54.40625 326.496094 54.285156 326.617188 54.203125 C 326.738281 54.125 326.800781 54.078125 326.800781 54.078125 " fill-opacity="1" fill-rule="nonzero"/><path fill="#8b1a1a" d="M 327.382812 53.847656 C 327.382812 53.847656 327.546875 53.4375 327.851562 52.773438 C 328.007812 52.441406 328.191406 52.042969 328.414062 51.601562 C 328.523438 51.378906 328.644531 51.144531 328.761719 50.90625 C 328.886719 50.65625 329.011719 50.398438 329.140625 50.132812 C 329.402344 49.601562 329.695312 49.046875 330.019531 48.480469 C 330.363281 47.882812 330.699219 47.296875 331.023438 46.738281 C 331.378906 46.148438 331.757812 45.566406 332.164062 45.011719 C 332.371094 44.734375 332.570312 44.453125 332.773438 44.175781 C 332.980469 43.902344 333.195312 43.632812 333.414062 43.378906 C 333.414062 43.378906 333.175781 43.542969 332.78125 43.917969 C 332.582031 44.101562 332.359375 44.351562 332.078125 44.632812 C 331.800781 44.917969 331.496094 45.261719 331.171875 45.664062 C 330.84375 46.066406 330.5 46.53125 330.140625 47.070312 C 329.777344 47.597656 329.378906 48.175781 328.988281 48.84375 C 328.21875 50.191406 327.339844 51.753906 326.5 53.734375 L 327.382812 53.847656 " fill-opacity="1" fill-rule="nonzero"/><path fill="#8b1a1a" d="M 346.21875 55.492188 C 346.21875 55.492188 345.378906 55.222656 344.066406 55.171875 C 342.734375 55.101562 340.945312 55.238281 339.046875 56.066406 C 338.074219 56.460938 337.160156 56.894531 336.332031 57.355469 C 335.917969 57.582031 335.535156 57.828125 335.160156 58.050781 C 334.78125 58.277344 334.433594 58.503906 334.113281 58.734375 C 332.84375 59.652344 332.066406 60.578125 332.03125 61.285156 C 332.011719 62.003906 332.789062 62.417969 334.09375 62.46875 C 335.371094 62.496094 337.1875 62.15625 339.199219 61.378906 C 340.191406 60.972656 341.140625 60.40625 342.003906 59.792969 C 342.21875 59.636719 342.429688 59.480469 342.632812 59.320312 C 342.828125 59.152344 343.023438 58.988281 343.207031 58.820312 C 343.578125 58.488281 343.921875 58.15625 344.234375 57.835938 C 344.859375 57.195312 345.371094 56.625 345.707031 56.191406 C 346.035156 55.757812 346.21875 55.492188 346.21875 55.492188 " fill-opacity="1" fill-rule="nonzero"/><path fill="#8b1a1a" d="M 346.460938 54.902344 C 346.460938 54.902344 346.851562 54.710938 347.496094 54.34375 C 347.820312 54.160156 348.207031 53.933594 348.644531 53.664062 C 349.078125 53.398438 349.539062 53.070312 350.035156 52.714844 C 352.042969 51.308594 354.460938 49.203125 356.121094 46.773438 C 356.121094 46.773438 356.003906 47.066406 355.714844 47.578125 C 355.425781 48.09375 354.929688 48.808594 354.21875 49.683594 C 353.859375 50.121094 353.441406 50.59375 352.964844 51.09375 C 352.476562 51.585938 351.90625 52.089844 351.273438 52.617188 C 350.636719 53.136719 349.945312 53.6875 349.152344 54.214844 C 348.351562 54.734375 347.476562 55.253906 346.523438 55.757812 L 346.460938 54.902344 " fill-opacity="1" fill-rule="nonzero"/><path fill="#8b1a1a" d="M 335.757812 46.332031 C 335.757812 46.332031 336.179688 47.097656 336.445312 48.34375 C 336.691406 49.574219 336.769531 51.292969 336.097656 53.207031 C 335.734375 54.136719 335.3125 55.03125 334.855469 55.84375 C 334.628906 56.246094 334.402344 56.640625 334.148438 56.988281 C 333.898438 57.335938 333.644531 57.660156 333.390625 57.953125 C 332.382812 59.132812 331.398438 59.828125 330.675781 59.71875 C 329.960938 59.625 329.679688 58.796875 329.765625 57.558594 C 329.832031 56.292969 330.261719 54.621094 330.980469 52.824219 C 331.324219 51.90625 331.800781 51.054688 332.324219 50.292969 C 332.453125 50.101562 332.589844 49.921875 332.722656 49.738281 C 332.851562 49.550781 332.980469 49.371094 333.113281 49.199219 C 333.375 48.851562 333.636719 48.53125 333.894531 48.238281 C 334.398438 47.652344 334.878906 47.191406 335.214844 46.855469 C 335.546875 46.519531 335.757812 46.332031 335.757812 46.332031 " fill-opacity="1" fill-rule="nonzero"/><path fill="#8b1a1a" d="M 336.246094 46.0625 C 336.246094 46.0625 336.351562 45.683594 336.550781 45.0625 C 336.652344 44.753906 336.777344 44.382812 336.925781 43.96875 C 337.074219 43.550781 337.222656 43.074219 337.40625 42.574219 C 338.152344 40.59375 339.160156 38.117188 340.539062 36.101562 C 340.539062 36.101562 340.339844 36.277344 340.03125 36.65625 C 339.714844 37.03125 339.253906 37.585938 338.757812 38.378906 C 338.507812 38.777344 338.25 39.230469 337.988281 39.746094 C 337.714844 40.257812 337.421875 40.816406 337.136719 41.449219 C 336.851562 42.078125 336.585938 42.792969 336.300781 43.554688 C 336.003906 44.3125 335.71875 45.144531 335.449219 46.0625 L 336.246094 46.0625 " fill-opacity="1" fill-rule="nonzero"/><path fill="#8b1a1a" d="M 349.109375 41.296875 C 349.109375 41.296875 348.863281 41.398438 348.457031 41.601562 C 348.050781 41.800781 347.496094 42.117188 346.824219 42.507812 C 346.160156 42.902344 345.417969 43.40625 344.679688 44.019531 C 344.492188 44.171875 344.308594 44.335938 344.125 44.503906 C 343.9375 44.667969 343.742188 44.835938 343.558594 45.015625 C 343.179688 45.367188 342.8125 45.753906 342.46875 46.171875 C 342.121094 46.589844 341.792969 47.007812 341.492188 47.421875 C 341.171875 47.828125 340.871094 48.222656 340.601562 48.613281 C 340.054688 49.394531 339.609375 50.144531 339.273438 50.820312 C 338.570312 52.132812 338.34375 53.1875 338.785156 53.640625 C 339.222656 54.097656 340.253906 53.859375 341.578125 53.089844 C 342.234375 52.695312 342.933594 52.144531 343.679688 51.496094 C 344.050781 51.167969 344.425781 50.816406 344.808594 50.4375 C 345.179688 50.050781 345.539062 49.628906 345.90625 49.195312 C 346.269531 48.753906 346.597656 48.304688 346.890625 47.851562 C 347.1875 47.398438 347.449219 46.941406 347.65625 46.480469 C 348.089844 45.5625 348.402344 44.679688 348.625 43.917969 C 348.855469 43.160156 348.964844 42.496094 349.03125 42.03125 C 349.09375 41.566406 349.109375 41.296875 349.109375 41.296875 " fill-opacity="1" fill-rule="nonzero"/><g clip-path="url(#3197d7df4a)"><path fill="#8b1a1a" d="M 356.671875 28.335938 C 356.671875 28.335938 356.238281 29.136719 355.578125 30.335938 C 355.242188 30.933594 354.878906 31.644531 354.441406 32.378906 C 354 33.113281 353.53125 33.894531 353.066406 34.675781 C 352.828125 35.066406 352.605469 35.460938 352.359375 35.835938 C 352.113281 36.210938 351.875 36.582031 351.640625 36.941406 C 351.171875 37.65625 350.738281 38.320312 350.367188 38.894531 C 349.984375 39.460938 349.644531 39.917969 349.417969 40.246094 C 349.1875 40.570312 349.054688 40.753906 349.054688 40.753906 L 349.367188 40.964844 L 349.679688 41.171875 C 349.679688 41.171875 349.804688 40.980469 350.015625 40.640625 C 350.230469 40.300781 350.546875 39.824219 350.898438 39.234375 C 351.242188 38.640625 351.644531 37.949219 352.078125 37.207031 C 352.292969 36.835938 352.515625 36.453125 352.742188 36.0625 C 352.96875 35.675781 353.171875 35.265625 353.390625 34.863281 C 353.820312 34.054688 354.25 33.25 354.648438 32.492188 C 355.046875 31.734375 355.378906 31.003906 355.679688 30.390625 C 356.277344 29.160156 356.671875 28.335938 356.671875 28.335938 " fill-opacity="1" fill-rule="nonzero"/></g><g clip-path="url(#5c78b7158b)"><path fill="#8b1a1a" d="M 364.445312 75.488281 C 364.445312 75.488281 363.785156 76.433594 362.546875 78.203125 C 362.390625 78.421875 362.226562 78.65625 362.050781 78.902344 C 361.964844 79.027344 361.875 79.152344 361.785156 79.28125 C 361.6875 79.40625 361.589844 79.535156 361.488281 79.667969 C 361.082031 80.195312 360.640625 80.769531 360.164062 81.394531 C 359.921875 81.707031 359.675781 82.027344 359.417969 82.363281 C 359.289062 82.53125 359.15625 82.699219 359.023438 82.875 C 358.882812 83.039062 358.742188 83.210938 358.597656 83.382812 C 358.015625 84.070312 357.398438 84.800781 356.742188 85.574219 C 354.082031 88.613281 350.707031 92.21875 346.402344 95.898438 C 345.859375 96.347656 345.304688 96.804688 344.742188 97.273438 C 344.460938 97.503906 344.175781 97.738281 343.890625 97.976562 C 343.605469 98.210938 343.320312 98.453125 343.019531 98.675781 C 342.417969 99.128906 341.808594 99.589844 341.191406 100.054688 C 340.570312 100.515625 339.960938 101.011719 339.296875 101.453125 C 338.640625 101.902344 337.976562 102.359375 337.304688 102.820312 C 336.96875 103.050781 336.628906 103.28125 336.289062 103.515625 C 335.9375 103.730469 335.585938 103.953125 335.230469 104.171875 C 334.519531 104.613281 333.800781 105.058594 333.078125 105.511719 C 332.894531 105.621094 332.710938 105.734375 332.527344 105.847656 C 332.34375 105.953125 332.152344 106.058594 331.964844 106.164062 C 331.589844 106.375 331.210938 106.589844 330.832031 106.804688 C 330.066406 107.226562 329.304688 107.675781 328.515625 108.09375 C 327.722656 108.5 326.917969 108.90625 326.109375 109.320312 C 325.703125 109.527344 325.296875 109.734375 324.886719 109.941406 C 324.46875 110.132812 324.050781 110.324219 323.628906 110.519531 C 322.789062 110.90625 321.9375 111.292969 321.082031 111.6875 C 317.609375 113.152344 313.964844 114.566406 310.128906 115.730469 C 302.488281 118.171875 294.167969 119.863281 285.488281 120.882812 C 284.402344 120.992188 283.3125 121.101562 282.214844 121.207031 C 281.667969 121.261719 281.121094 121.316406 280.570312 121.371094 C 280.019531 121.40625 279.464844 121.441406 278.914062 121.480469 C 277.808594 121.550781 276.695312 121.625 275.582031 121.695312 C 274.46875 121.738281 273.347656 121.777344 272.226562 121.820312 C 271.664062 121.839844 271.105469 121.859375 270.542969 121.878906 C 269.976562 121.886719 269.414062 121.890625 268.851562 121.894531 C 267.722656 121.90625 266.589844 121.914062 265.453125 121.925781 C 264.320312 121.90625 263.183594 121.882812 262.042969 121.863281 C 261.472656 121.851562 260.902344 121.839844 260.332031 121.828125 C 259.761719 121.800781 259.191406 121.777344 258.621094 121.75 C 257.476562 121.699219 256.332031 121.648438 255.183594 121.597656 C 254.039062 121.519531 252.894531 121.441406 251.742188 121.363281 L 250.019531 121.246094 C 249.445312 121.203125 248.871094 121.140625 248.296875 121.09375 C 247.148438 120.984375 245.996094 120.875 244.84375 120.765625 C 243.695312 120.652344 242.546875 120.503906 241.394531 120.375 C 240.246094 120.234375 239.09375 120.121094 237.945312 119.949219 C 235.648438 119.628906 233.347656 119.335938 231.0625 118.953125 L 227.621094 118.394531 C 226.488281 118.195312 225.355469 118 224.222656 117.800781 C 221.953125 117.402344 219.691406 117.003906 217.429688 116.609375 C 212.914062 115.800781 208.402344 114.964844 203.953125 114.144531 C 199.5 113.328125 195.078125 112.519531 190.714844 111.722656 C 186.347656 110.976562 182.039062 110.226562 177.792969 109.621094 C 169.304688 108.378906 161.066406 107.570312 153.21875 107.328125 C 151.257812 107.320312 149.320312 107.308594 147.414062 107.300781 C 146.9375 107.296875 146.460938 107.292969 145.988281 107.292969 C 145.515625 107.285156 145.042969 107.320312 144.574219 107.332031 C 143.636719 107.363281 142.703125 107.394531 141.78125 107.425781 C 140.855469 107.453125 139.9375 107.484375 139.03125 107.511719 C 138.574219 107.527344 138.121094 107.542969 137.671875 107.554688 C 137.222656 107.585938 136.773438 107.621094 136.328125 107.648438 C 134.546875 107.777344 132.796875 107.902344 131.082031 108.023438 C 130.65625 108.054688 130.226562 108.082031 129.804688 108.113281 C 129.378906 108.140625 128.957031 108.171875 128.539062 108.222656 C 127.699219 108.3125 126.875 108.398438 126.054688 108.484375 C 124.414062 108.65625 122.816406 108.824219 121.253906 108.988281 C 119.691406 109.125 118.175781 109.347656 116.703125 109.535156 C 115.226562 109.730469 113.792969 109.917969 112.402344 110.101562 C 111.710938 110.191406 111.027344 110.28125 110.355469 110.371094 C 110.015625 110.414062 109.683594 110.457031 109.355469 110.503906 C 109.023438 110.554688 108.699219 110.605469 108.375 110.65625 C 107.082031 110.855469 105.832031 111.046875 104.632812 111.230469 C 102.234375 111.59375 100.03125 111.929688 98.039062 112.230469 C 94.070312 112.921875 90.941406 113.429688 88.8125 113.789062 C 86.683594 114.136719 85.542969 114.324219 85.542969 114.324219 C 85.542969 114.324219 86.664062 114.058594 88.765625 113.558594 C 90.871094 113.070312 93.953125 112.328125 97.886719 111.433594 C 99.859375 111.019531 102.046875 110.5625 104.425781 110.066406 C 106.808594 109.5625 109.382812 109.023438 112.15625 108.554688 C 113.542969 108.308594 114.96875 108.054688 116.441406 107.789062 C 117.914062 107.535156 119.425781 107.238281 120.992188 107.027344 C 122.554688 106.800781 124.160156 106.570312 125.800781 106.335938 C 126.621094 106.21875 127.453125 106.097656 128.292969 105.980469 C 128.714844 105.914062 129.136719 105.867188 129.566406 105.824219 C 129.992188 105.777344 130.421875 105.730469 130.851562 105.683594 C 132.578125 105.5 134.34375 105.3125 136.136719 105.117188 C 136.585938 105.070312 137.039062 105.023438 137.492188 104.972656 C 137.949219 104.941406 138.40625 104.910156 138.863281 104.878906 C 139.78125 104.816406 140.710938 104.753906 141.644531 104.691406 C 145.382812 104.371094 149.269531 104.371094 153.261719 104.277344 C 155.257812 104.320312 157.28125 104.363281 159.328125 104.40625 C 159.839844 104.421875 160.355469 104.425781 160.871094 104.445312 C 161.382812 104.476562 161.898438 104.511719 162.417969 104.542969 C 163.449219 104.609375 164.492188 104.671875 165.539062 104.738281 C 166.0625 104.769531 166.585938 104.804688 167.113281 104.835938 C 167.636719 104.871094 168.164062 104.898438 168.691406 104.957031 C 169.742188 105.066406 170.800781 105.175781 171.863281 105.285156 C 172.925781 105.390625 173.996094 105.503906 175.066406 105.613281 C 176.140625 105.730469 177.210938 105.886719 178.285156 106.023438 C 186.910156 107.125 195.726562 108.65625 204.65625 110.238281 C 209.117188 111.023438 213.613281 111.816406 218.125 112.613281 C 220.386719 113.003906 222.652344 113.394531 224.917969 113.785156 C 226.050781 113.980469 227.183594 114.175781 228.320312 114.371094 L 231.699219 114.914062 C 233.953125 115.296875 236.21875 115.589844 238.480469 115.914062 C 239.609375 116.082031 240.746094 116.199219 241.875 116.339844 C 243.007812 116.472656 244.136719 116.617188 245.269531 116.734375 C 246.402344 116.847656 247.53125 116.957031 248.660156 117.066406 C 249.226562 117.121094 249.789062 117.183594 250.355469 117.230469 L 252.046875 117.359375 C 253.175781 117.445312 254.300781 117.53125 255.425781 117.617188 C 256.550781 117.675781 257.675781 117.734375 258.792969 117.792969 C 267.765625 118.261719 276.609375 118.058594 285.109375 117.285156 C 293.59375 116.414062 301.75 115.007812 309.257812 112.816406 C 313.027344 111.789062 316.597656 110.472656 320.035156 109.171875 C 320.882812 108.816406 321.726562 108.46875 322.558594 108.121094 C 322.976562 107.945312 323.394531 107.773438 323.808594 107.601562 C 324.214844 107.414062 324.617188 107.226562 325.019531 107.039062 C 325.824219 106.664062 326.621094 106.292969 327.414062 105.925781 C 328.195312 105.546875 328.953125 105.136719 329.714844 104.75 C 335.773438 101.59375 341.03125 98.125 345.417969 94.691406 C 349.800781 91.253906 353.339844 87.894531 356.148438 85.027344 C 356.835938 84.296875 357.488281 83.605469 358.105469 82.957031 C 358.257812 82.792969 358.410156 82.632812 358.5625 82.476562 C 358.703125 82.3125 358.84375 82.152344 358.980469 81.996094 C 359.257812 81.679688 359.523438 81.378906 359.78125 81.085938 C 360.296875 80.496094 360.773438 79.953125 361.210938 79.453125 C 361.320312 79.332031 361.425781 79.207031 361.53125 79.089844 C 361.628906 78.964844 361.726562 78.847656 361.820312 78.730469 C 362.011719 78.496094 362.1875 78.273438 362.359375 78.0625 C 363.71875 76.382812 364.445312 75.488281 364.445312 75.488281 " fill-opacity="1" fill-rule="nonzero"/></g></svg>