<svg xmlns="http://www.w3.org/2000/svg" xmlns:xlink="http://www.w3.org/1999/xlink" width="40" zoomAndPan="magnify" viewBox="0 0 30 30.000001" height="40" preserveAspectRatio="xMidYMid meet" version="1.0"><defs><clipPath id="a006069a4d"><path d="M 2.515625 2.03125 L 27.195312 2.03125 L 27.195312 26.710938 L 2.515625 26.710938 Z M 2.515625 2.03125 " clip-rule="nonzero"/></clipPath></defs><g clip-path="url(#a006069a4d)"><path fill="#064635" d="M 14.996094 2.03125 C 8.105469 2.03125 2.515625 7.621094 2.515625 14.511719 C 2.515625 21.40625 8.105469 26.992188 14.996094 26.992188 C 21.890625 26.992188 27.476562 21.40625 27.476562 14.511719 C 27.476562 7.621094 21.890625 2.03125 14.996094 2.03125 Z M 18.101562 8.375 C 17.746094 8.320312 17.449219 8.292969 17.214844 8.292969 C 16.859375 8.292969 16.601562 8.355469 16.433594 8.488281 C 16.265625 8.617188 16.148438 8.816406 16.082031 9.085938 C 16.046875 9.226562 16.035156 9.503906 16.035156 9.925781 L 16.035156 10.09375 L 17.707031 10.09375 L 17.707031 12.328125 L 16.035156 12.328125 L 16.035156 18.917969 L 12.847656 18.917969 L 12.847656 12.328125 L 11.535156 12.328125 L 11.535156 10.09375 L 12.847656 10.09375 L 12.847656 9.511719 C 12.847656 9.148438 12.886719 8.746094 12.964844 8.308594 C 13.042969 7.890625 13.183594 7.542969 13.386719 7.28125 C 13.589844 7.019531 13.882812 6.804688 14.253906 6.644531 C 14.628906 6.480469 15.199219 6.394531 15.941406 6.394531 C 16.515625 6.394531 17.351562 6.457031 18.429688 6.585938 Z M 18.101562 8.375 " fill-opacity="1" fill-rule="nonzero"/></g></svg>