<svg xmlns="http://www.w3.org/2000/svg" xmlns:xlink="http://www.w3.org/1999/xlink" width="40" zoomAndPan="magnify" viewBox="0 0 30 30.000001" height="40" preserveAspectRatio="xMidYMid meet" version="1.0"><defs><clipPath id="0f448f06a2"><path d="M 2.515625 2.03125 L 27.195312 2.03125 L 27.195312 26.710938 L 2.515625 26.710938 Z M 2.515625 2.03125 " clip-rule="nonzero"/></clipPath></defs><g clip-path="url(#0f448f06a2)"><path fill="#064635" d="M 27.476562 14.511719 C 27.476562 21.402344 21.886719 26.992188 14.996094 26.992188 C 8.101562 26.992188 2.515625 21.402344 2.515625 14.511719 C 2.515625 7.617188 8.101562 2.03125 14.996094 2.03125 C 21.886719 2.03125 27.476562 7.617188 27.476562 14.511719 Z M 27.476562 14.511719 " fill-opacity="1" fill-rule="nonzero"/></g><path fill="#ffffff" d="M 10.28125 8.292969 L 19.957031 8.292969 C 20.878906 8.292969 21.628906 9.046875 21.628906 9.964844 L 21.628906 19.640625 C 21.628906 20.558594 20.878906 21.3125 19.957031 21.3125 L 10.28125 21.3125 C 9.363281 21.3125 8.613281 20.558594 8.613281 19.640625 L 8.613281 9.964844 C 8.609375 9.046875 9.363281 8.292969 10.28125 8.292969 Z M 18.09375 9.738281 C 17.773438 9.738281 17.507812 10.003906 17.507812 10.328125 L 17.507812 11.730469 C 17.507812 12.050781 17.773438 12.316406 18.09375 12.316406 L 19.566406 12.316406 C 19.886719 12.316406 20.152344 12.050781 20.152344 11.730469 L 20.152344 10.328125 C 20.152344 10.003906 19.886719 9.738281 19.566406 9.738281 Z M 20.15625 13.800781 L 19.011719 13.800781 C 19.121094 14.152344 19.179688 14.527344 19.179688 14.917969 C 19.179688 17.082031 17.367188 18.835938 15.132812 18.835938 C 12.898438 18.835938 11.085938 17.082031 11.085938 14.917969 C 11.085938 14.527344 11.144531 14.152344 11.253906 13.800781 L 10.058594 13.800781 L 10.058594 19.296875 C 10.058594 19.582031 10.289062 19.816406 10.574219 19.816406 L 19.640625 19.816406 C 19.925781 19.816406 20.15625 19.582031 20.15625 19.296875 Z M 15.132812 12.242188 C 13.6875 12.242188 12.519531 13.375 12.519531 14.773438 C 12.519531 16.171875 13.6875 17.308594 15.132812 17.308594 C 16.578125 17.308594 17.746094 16.171875 17.746094 14.773438 C 17.746094 13.375 16.578125 12.242188 15.132812 12.242188 Z M 15.132812 12.242188 " fill-opacity="1" fill-rule="nonzero"/></svg>